<?xml version="1.0" standalone="no"?>
<!DOCTYPE svg PUBLIC "-//W3C//DTD SVG 20010904//EN"
 "http://www.w3.org/TR/2001/REC-SVG-20010904/DTD/svg10.dtd">
<svg version="1.0" xmlns="http://www.w3.org/2000/svg"
 width="240.000000pt" height="66.000000pt" viewBox="0 0 240.000000 66.000000"
 preserveAspectRatio="xMidYMid meet">
<metadata>
Created by potrace 1.11, written by Peter Selinger 2001-2013
</metadata>
<g transform="translate(0.000000,66.000000) scale(0.100000,-0.100000)"
fill="#000000" stroke="none">
<path d="M230 631 c-149 -46 -219 -192 -156 -327 40 -85 122 -134 227 -134 81
0 130 16 178 56 41 35 84 121 79 157 -2 18 -12 23 -48 28 -43 6 -43 6 -9 7 59
3 67 23 36 87 -28 57 -75 99 -134 121 -41 14 -133 17 -173 5z m144 -183 c23
-30 24 -34 10 -67 -22 -53 -63 -72 -113 -51 -50 20 -65 80 -30 124 16 21 29
26 64 26 37 0 47 -5 69 -32z"/>
<path d="M1398 620 c-83 -44 -109 -146 -60 -238 26 -49 21 -66 -16 -57 -33 8
-42 -7 -42 -72 0 -68 15 -83 86 -83 142 0 214 121 150 249 l-27 52 31 10 c29
11 30 12 30 79 0 53 -4 69 -16 74 -31 12 -100 5 -136 -14z"/>
<path d="M705 505 c-68 -32 -105 -87 -105 -158 0 -56 18 -95 59 -130 49 -41
85 -48 206 -39 l110 7 3 75 c5 111 -4 155 -41 197 -17 20 -46 42 -64 49 -42
18 -130 17 -168 -1z"/>
<path d="M1120 498 c-58 -39 -71 -76 -68 -203 l3 -110 71 -3 c84 -3 84 -4 84
116 0 70 1 72 25 72 26 0 26 1 23 73 l-3 72 -50 3 c-40 2 -58 -2 -85 -20z"/>
<path d="M1705 502 c-82 -39 -104 -90 -105 -244 l0 -108 -732 -1 c-403 0 -755
-4 -783 -7 -48 -7 -50 -8 -53 -41 -2 -19 -1 -44 2 -57 l6 -24 1091 0 1091 0
39 22 c21 12 51 39 66 61 28 40 28 42 31 220 3 141 0 182 -10 188 -15 10 -99
12 -122 3 -13 -5 -16 -23 -16 -95 0 -53 -4 -89 -10 -89 -6 0 -10 34 -10 83 0
51 -5 88 -12 95 -16 16 -120 16 -136 0 -17 -17 -16 -209 2 -251 18 -44 49 -69
94 -77 l37 -6 -30 -15 c-24 -11 -68 -13 -207 -11 -102 2 -178 7 -178 13 0 5
16 9 35 9 68 0 141 44 171 102 19 36 18 112 -2 153 -38 81 -169 119 -259 77z"/>
</g>
</svg>
